<svg xmlns="http://www.w3.org/2000/svg" fill="none" viewBox="0 0 44 20" height="20" width="44">
<path fill="white" d="M9.35797 3.13264C9.12126 2.34601 8.808 1.32965 8.66184 0.870201L8.40432 0.0348377L7.09553 0.0139542C5.90516 3.05176e-05 5.79381 0.00699043 5.83555 0.11141C6.07226 0.730974 6.05132 0.877161 5.52922 2.57574L5.39666 3.00994C5.24818 3.49607 5.05716 4.12111 4.91657 4.59453C4.09521 7.29554 3.31545 9.85036 2.696 11.8692L2.45548 12.6563C2.40717 12.8147 2.35858 12.974 2.31044 13.1319C2.27098 13.2614 2.23174 13.3899 2.19324 13.5163C2.18931 13.5292 2.18546 13.5421 2.18154 13.5549C1.97743 14.2248 1.79338 14.8288 1.6866 15.1758C1.49857 15.8093 1.25492 16.6029 1.14356 16.951C1.03221 17.2921 0.865109 17.849 0.767622 18.1831C0.600523 18.7331 0.252454 19.3387 0.0018725 19.5058C-0.0398685 19.5336 0.621461 19.5615 1.46376 19.5615H3.00926L2.87004 19.2969C2.682 18.9349 2.73774 18.3641 3.05794 17.4939C3.62872 15.9555 4.37366 14.7999 5.56403 13.6025C6.42727 12.7324 7.05379 12.259 8.05625 11.7369C8.66877 11.4097 9.62256 11.0338 9.67817 11.0895C9.71297 11.1173 10.0193 12.1058 11.0704 15.5935L11.0767 15.6142C11.0864 15.6462 11.0964 15.6783 11.1062 15.7107C11.3488 16.5062 11.626 17.4142 11.7387 17.7724C11.9685 18.5381 11.9964 18.9558 11.8362 19.2691C11.7735 19.3874 11.7248 19.4988 11.7248 19.5267C11.7248 19.5475 12.4 19.5615 13.2215 19.5615H14.7182L14.4746 19.2412C14.467 19.2313 14.4596 19.2218 14.4524 19.2126C14.447 19.2056 14.4415 19.1984 14.4363 19.1917C14.4147 19.1642 14.3949 19.1393 14.3762 19.1157C14.3607 19.0961 14.346 19.0775 14.332 19.0592C14.3317 19.0589 14.3315 19.0586 14.3313 19.0583C14.3221 19.0463 14.3132 19.0345 14.3045 19.0226C14.3026 19.0199 14.3006 19.0172 14.2986 19.0145C14.2929 19.0066 14.2873 18.9986 14.2817 18.9905C14.2813 18.99 14.281 18.9895 14.2807 18.9891C14.2798 18.9877 14.2788 18.9863 14.2779 18.9849C14.2776 18.9845 14.2774 18.9842 14.2772 18.9839C14.2295 18.9138 14.1855 18.8347 14.1332 18.7119C14.0693 18.5618 13.9931 18.3466 13.8823 18.0033C13.7988 17.7443 13.6957 17.4125 13.5635 16.9807C13.5624 16.9769 13.5611 16.9732 13.56 16.9695C13.5598 16.969 13.5597 16.9684 13.5596 16.9679C13.4681 16.6689 13.3627 16.3224 13.2405 15.9194C13.1871 15.7434 13.1306 15.5567 13.0705 15.3585C13.066 15.3436 13.0613 15.3288 13.0568 15.3138C12.9992 15.124 12.9385 14.9237 12.8744 14.7124C12.8598 14.6641 12.845 14.6152 12.83 14.5657C12.8213 14.5372 12.8126 14.5085 12.8038 14.4797C12.6651 14.0226 12.5337 13.5888 12.4075 13.1728C12.4034 13.1593 12.3993 13.1457 12.3952 13.1322C12.3822 13.0896 12.3694 13.0472 12.3566 13.0049C12.3398 12.9496 12.3231 12.8946 12.3065 12.8398C11.9185 11.5602 11.5798 10.4442 11.2375 9.32826C11.0914 8.84792 10.7781 7.81764 10.5414 7.03101C10.3047 6.24438 10.0402 5.36724 9.94969 5.08183C9.85914 4.79641 9.59469 3.91928 9.35797 3.13264ZM7.21382 3.73828C7.13034 4.05851 6.77533 5.22801 6.22536 7.03101C6.0792 7.51134 5.76594 8.54163 5.52922 9.32826C5.29251 10.1149 5.02099 10.999 4.92364 11.2983C4.82615 11.5977 4.76347 11.8622 4.78441 11.8831C4.81215 11.904 4.99325 11.7787 5.19502 11.6046C6.06519 10.8667 7.69418 9.94086 8.7872 9.55798C9.00256 9.4848 9.09216 9.45436 9.12112 9.39455C9.14179 9.35195 9.13173 9.29445 9.11432 9.19599C9.08645 9.06373 8.80106 8.0961 8.48087 7.03797C8.1536 5.97984 7.7778 4.73376 7.63857 4.26039C7.49934 3.79397 7.36705 3.4111 7.33918 3.4111C7.31824 3.4111 7.26263 3.55729 7.21382 3.73828Z" clip-rule="evenodd" fill-rule="evenodd"></path>
<path fill="white" d="M17.9901 18.7609V9.37698V3.05176e-05L16.932 0.00699043L15.8669 0.0139542L15.1917 0.515169C14.8227 0.793623 14.4537 1.06512 14.3771 1.12081C14.231 1.21827 14.231 1.22523 14.3423 1.56634C14.405 1.7543 14.4677 1.92833 14.4816 1.93529C14.4956 1.95617 15.5258 1.65683 15.7973 1.55937C15.8948 1.51761 15.9017 2.4922 15.8878 10.2054L15.8669 18.9001L15.7138 19.1925C15.6233 19.3526 15.5536 19.5058 15.5536 19.5267C15.5536 19.5475 16.1802 19.5615 16.9459 19.5615C17.7117 19.5615 18.3382 19.5475 18.3382 19.5336C18.3382 19.5197 18.2616 19.3387 18.1642 19.1299L17.9901 18.7609Z" clip-rule="evenodd" fill-rule="evenodd"></path>
<path fill="white" d="M27.6527 1.30874L28.0007 2.44344L27.7083 2.40167C27.5343 2.37383 27.2279 2.40167 26.9356 2.47129C26.0376 2.67317 24.4504 3.77306 23.6499 4.74765C23.0999 5.40898 22.8215 5.81274 22.9328 5.76401C24.5061 5.08876 24.9585 4.98434 26.3787 4.98434C27.2837 4.98434 27.6039 5.01219 28.0912 5.13053C30.3745 5.70136 32.1566 7.1354 33.166 9.21685C33.3539 9.60668 33.5976 10.2471 33.702 10.6509C33.876 11.3053 33.897 11.5002 33.89 12.4957C33.89 13.4285 33.8691 13.7069 33.7368 14.2012C33.4235 15.3777 33.1312 16.0042 32.4629 16.944C31.4605 18.3432 29.9777 19.3387 28.1608 19.819C27.5831 19.9722 27.3463 20 26.3787 20C25.4041 20 25.1814 19.9791 24.5966 19.826C23.1834 19.4431 22.0209 18.7887 21.0602 17.8281C19.3895 16.1573 18.6585 13.9784 18.8883 11.3818C19.3338 6.3975 21.7007 2.56178 25.4668 0.730946C26.3787 0.285418 27.2002 -0.00695992 27.2627 0.0904999C27.2837 0.139231 27.4646 0.682217 27.6527 1.30874ZM21.805 14.2917C21.5823 14.3474 21.3804 14.4031 21.3594 14.4309C21.2898 14.4936 21.5127 14.9878 21.8119 15.4542C22.8632 17.0693 24.7984 18.0578 26.6641 17.9394C27.0121 17.9116 27.381 17.8629 27.4785 17.8281L27.6665 17.7584L27.5412 17.4591C26.9495 16.0042 25.8287 14.9182 24.4295 14.4379C23.9699 14.2778 23.7263 14.243 23.0372 14.229C22.529 14.2151 22.0486 14.243 21.805 14.2917ZM25.4441 7.11335C25.3995 7.12356 25.3557 7.13358 25.3206 7.14236C25.0908 7.19109 25.1187 7.3512 25.4877 8.08214C26.0585 9.23077 27.1444 10.1566 28.3975 10.5534C29.2746 10.8319 30.4511 10.8597 31.3074 10.6091C31.4953 10.5534 31.4466 10.3655 31.0845 9.75287C30.3328 8.50679 29.379 7.74104 28.0146 7.30247C27.4646 7.12148 27.221 7.07971 26.5527 7.05883C26.1142 7.05186 25.6895 7.05186 25.6129 7.07275C25.5686 7.08485 25.5055 7.09929 25.4441 7.11335ZM23.998 7.58789C23.267 7.91507 22.3482 8.72259 21.833 9.48138C21.3526 10.1845 21.0184 11.18 20.9488 12.1337C20.9071 12.6488 20.9907 13.6025 21.0811 13.693C21.1647 13.7765 21.7842 13.5329 22.2994 13.2196C23.4062 12.5374 24.2974 11.2983 24.5687 10.0592C24.7637 9.19596 24.6314 7.44866 24.3739 7.44866C24.3251 7.44866 24.1581 7.51131 23.998 7.58789ZM31.1403 11.4097C30.4651 11.6951 29.9569 12.0571 29.4069 12.6488C28.314 13.8183 27.8476 15.5308 28.1957 17.0623C28.3071 17.5426 28.314 17.5496 28.488 17.5078C28.8292 17.4243 29.6228 16.9092 30.1101 16.4497C31.2239 15.3916 31.8016 14.0759 31.8086 12.5653C31.8086 11.8552 31.732 11.2078 31.6485 11.2078C31.6206 11.2078 31.3909 11.2983 31.1403 11.4097Z" clip-rule="evenodd" fill-rule="evenodd"></path>
<path fill="white" d="M42.529 1.46187C42.7657 0.925846 43.1207 0.0626354 43.1207 0.0208683C43.1207 0.00694466 40.7817 -1.52588e-05 37.9276 -1.52588e-05C33.0198 -1.52588e-05 32.7413 0.00694847 32.7761 0.11833C32.7976 0.199823 33.0437 1.02651 33.2391 1.68339C33.2462 1.70717 33.2533 1.73071 33.2602 1.75399C33.2968 1.87698 33.3312 1.99255 33.3615 2.09432C33.3764 2.14454 33.3904 2.19139 33.4031 2.23412C33.4436 2.37063 33.4715 2.46501 33.4792 2.49215C33.5002 2.54784 33.6184 2.49911 33.8273 2.35293L34.1544 2.1232L37.0016 2.10232C39.1458 2.0884 39.8489 2.10231 39.8489 2.16497C39.8489 2.24154 39.2433 3.69647 38.7002 4.94255C38.5749 5.22797 38.2129 6.07726 37.8997 6.82212C37.6895 7.32182 37.3792 8.05021 37.0967 8.71307C37.0893 8.73047 37.0819 8.74783 37.0745 8.76514C37.0622 8.79416 37.0498 8.823 37.0375 8.85171C37.0116 8.91249 36.9861 8.97255 36.961 9.03159C36.8727 9.23888 36.7896 9.43401 36.7163 9.60667L36.5006 10.1136C36.1539 10.9282 35.6746 12.0527 35.324 12.8785C35.2874 12.9661 35.2507 13.0538 35.214 13.141C35.1654 13.2566 35.1169 13.3714 35.0692 13.4844C34.9833 13.6875 34.8997 13.8846 34.8213 14.0687C34.7921 14.1374 34.7635 14.2042 34.7359 14.2688C34.7152 14.3173 34.695 14.3646 34.6754 14.4105C34.6386 14.4967 34.604 14.5781 34.5717 14.6537C34.569 14.6601 34.5662 14.6664 34.5635 14.6727C34.4616 14.9111 34.3853 15.0896 34.3494 15.1758C34.238 15.4264 33.9734 16.032 33.7646 16.5332C33.5558 17.0275 33.1869 17.9046 32.9433 18.4824L32.4977 19.5266L37.7814 19.5475C40.6912 19.5545 43.0859 19.5545 43.0928 19.5405C43.1138 19.5196 42.5499 17.5565 42.4315 17.2363L42.355 17.0414L42.1113 17.2224C41.9582 17.3407 41.7146 17.4382 41.4638 17.48C40.9906 17.5565 35.7417 17.5635 35.7417 17.48C35.7417 17.4104 36.034 16.6933 36.2986 16.1155L36.3417 16.0186L36.3458 16.0097C36.383 15.926 36.4171 15.8495 36.4442 15.7872C36.4445 15.7864 36.4448 15.7856 36.4451 15.7848C36.4458 15.7833 36.4464 15.7819 36.447 15.7805C36.4484 15.7774 36.4497 15.7744 36.451 15.7713C36.4539 15.7647 36.4567 15.7582 36.4594 15.752C36.4704 15.7265 36.4798 15.7041 36.4873 15.6857C36.4969 15.662 36.5034 15.6447 36.5061 15.6351C36.5069 15.632 36.5074 15.6297 36.5074 15.6282C36.5074 15.6143 36.8345 14.8416 37.2314 13.9088L37.5337 13.1988C37.9931 12.12 38.6854 10.494 39.2502 9.15418C39.9672 7.46953 40.6425 5.8893 40.7538 5.63869C40.7979 5.53282 40.8942 5.30642 41.0186 5.0141C41.024 5.00141 41.0294 4.98859 41.0349 4.97566C41.051 4.93768 41.0677 4.89867 41.0846 4.85874C41.1292 4.75401 41.1764 4.64294 41.2254 4.52759C41.2257 4.52674 41.2261 4.52589 41.2265 4.52504C41.2279 4.52173 41.2293 4.51842 41.2307 4.5151C41.3555 4.22115 41.4916 3.89998 41.624 3.58509C41.993 2.70099 42.4036 1.74729 42.529 1.46187Z" clip-rule="evenodd" fill-rule="evenodd"></path>
</svg>
