<svg xmlns="http://www.w3.org/2000/svg" fill="none" viewBox="0 0 41 22" height="22" width="41">
<g clip-path="url(#clip0_1388_2398)">
<path fill="white" d="M3.96739 6.42403H6.74519L10.6683 15.8149H7.73229L5.25189 9.57946L3.61304 13.6715H5.56194L6.34023 15.8149H0L3.96739 6.42403ZM13.9396 8.3726C14.2244 8.3726 14.5344 8.39775 14.8445 8.47317V6.14746H17.2996V15.4C16.7364 15.6515 15.5215 15.9595 14.3066 15.9595C12.1046 15.9595 10.2127 14.7149 10.2127 12.232C10.2127 9.74917 12.035 8.37889 13.9396 8.37889V8.3726ZM14.2497 13.948C14.4775 13.948 14.661 13.904 14.8445 13.8475V10.4406C14.661 10.3715 14.4775 10.34 14.237 10.34C13.4334 10.34 12.6868 10.9309 12.6868 12.1755C12.6868 13.42 13.4461 13.9417 14.2497 13.9417V13.948ZM21.6719 8.3726C23.7157 8.3726 25.4558 9.74289 25.4558 12.1566C25.4558 14.5703 23.7221 15.9406 21.6719 15.9406C19.6218 15.9406 17.8754 14.5703 17.8754 12.1566C17.8754 9.74289 19.5965 8.3726 21.6719 8.3726ZM21.6719 13.9103C22.3743 13.9103 23.026 13.3509 23.026 12.1566C23.026 10.9623 22.3743 10.4029 21.6719 10.4029C20.9696 10.4029 20.3305 10.9623 20.3305 12.1566C20.3305 13.3509 20.9379 13.9103 21.6719 13.9103ZM26.0443 6.14746H28.512V8.47317C28.8094 8.4166 29.1195 8.3726 29.4295 8.3726C31.3468 8.3726 33.1248 9.61717 33.1248 12.056C33.1248 14.6332 31.2329 15.9406 28.9929 15.9406C28.0311 15.9406 26.8036 15.7457 26.0443 15.3937V6.14117V6.14746ZM29.0499 13.9355C29.8978 13.9355 30.6697 13.332 30.6697 12.0875C30.6697 10.9246 29.9104 10.3777 29.0879 10.3777C28.8601 10.3777 28.6766 10.4029 28.512 10.4783V13.8412C28.6513 13.8977 28.8348 13.9417 29.0499 13.9417V13.9355ZM37.3137 8.3726C39.1614 8.3726 40.8571 9.54803 40.8571 11.9177C40.8571 12.2383 40.8445 12.5463 40.8002 12.8543H36.2C36.4531 13.684 37.1871 14.0737 38.1046 14.0737C38.8513 14.0737 39.541 13.8915 40.3193 13.5583V15.4252C39.598 15.7897 38.7374 15.9406 37.8515 15.9406C35.5103 15.9406 33.688 14.5389 33.688 12.1566C33.688 9.77432 35.3395 8.3726 37.3137 8.3726ZM38.5539 11.3269C38.4274 10.5286 37.8895 10.208 37.339 10.208C36.7885 10.208 36.3393 10.5475 36.1558 11.3269H38.5539Z"></path>
</g>
<defs>
<clipPath id="clip0_1388_2398">
<rect fill="white" height="22" width="40.8571"></rect>
</clipPath>
</defs>
</svg>
