<svg xmlns="http://www.w3.org/2000/svg" fill="none" viewBox="0 0 726 246" height="246" width="726">
<g clip-path="url(#clip0_1130_1970)">
<path fill="white" d="M195.68 0L196.68 241H149.68V219L142.15 226.97C107.71 255.74 49.6 250.74 20.71 216.47C-6.69999 183.96 -6.76999 117.57 19.71 84.53C50.34 46.31 117.33 41.53 149.68 80V0H195.68ZM94.47 88.29C29.95 94.64 31 207.2 97.19 210.98C175.4 215.45 174.95 80.36 94.47 88.29Z"></path>
<path fill="white" d="M393.68 157.002H257.18C254.42 157.002 257.41 170.872 257.98 173.202C270.89 226.292 341.2 225.192 357.7 176.002L395.57 198.492C368.17 242.082 308.73 256.432 262.02 237.162C215.89 218.132 202.64 170.992 212.98 124.792C225.09 70.6621 279.4 43.1921 331.91 56.2721C377.58 67.6521 394.65 113.952 393.69 156.992L393.68 157.002ZM347.68 127.002C343.57 100.962 329.25 83.0821 301.13 84.9521C277.59 86.5221 263.81 105.582 258.68 127.002H347.68Z"></path>
<path fill="white" d="M591.68 157.003H455.18L454.09 159.043C454.34 220.963 536.05 233.243 555.69 176.003L593.68 197.023C581.86 219.563 556.31 236.533 531.52 242.353C469.97 256.793 408.9 223.863 407.64 156.563C406.35 88.053 456.96 43.373 524.87 55.333C574.22 64.023 592.82 111.523 591.69 157.013L591.68 157.003ZM545.68 127.003C541.87 100.773 527.28 83.083 499.13 84.953C475.52 86.533 462 105.673 456.68 127.003H545.68Z"></path>
<path fill="white" d="M651.68 0L651.64 201.54C653.58 214.58 652.1 227.97 654.68 241H607.68V0H651.68Z"></path>
<path fill="white" d="M725.68 198H681.68V241H725.68V198Z"></path>
</g>
<defs>
<clipPath id="clip0_1130_1970">
<rect fill="white" height="245.72" width="725.68"></rect>
</clipPath>
</defs>
</svg>
