<svg xmlns="http://www.w3.org/2000/svg" fill="none" viewBox="0 0 101 17" height="17" width="101">
<g clip-path="url(#clip0_634_568083)">
<path fill="white" d="M76.1092 1.24457C76.2687 1.20918 76.5564 1.15415 76.7509 1.12663C76.9453 1.09518 77.4273 1.07159 77.8318 1.06766C78.2945 1.06372 78.7183 1.08731 78.9944 1.12663C79.2355 1.15808 79.6165 1.23277 79.842 1.28782C80.0675 1.34286 80.4097 1.44507 80.6003 1.51584C80.7908 1.58661 81.0824 1.70455 81.2418 1.77925C81.4012 1.85394 81.7007 2.01121 81.9029 2.13308C82.105 2.25495 82.4394 2.48298 82.6416 2.64023C82.8438 2.79749 83.1782 3.09628 83.3804 3.30465C83.5826 3.51301 83.8275 3.78428 83.9247 3.90616C84.0336 4.04769 84.0842 4.14597 84.0609 4.16564C84.0375 4.18529 83.4193 4.68065 81.339 6.34366L81.028 5.99375C80.8569 5.80505 80.5847 5.54557 80.4253 5.41583C80.2659 5.2861 80.0209 5.11704 79.8809 5.03449C79.741 4.95193 79.496 4.83005 79.3365 4.76714C79.1771 4.70425 78.9049 4.61775 78.7339 4.57843C78.5084 4.5234 78.2712 4.50374 77.859 4.50374C77.4507 4.50374 77.2096 4.5234 76.9841 4.57843C76.8131 4.61775 76.5409 4.70031 76.3814 4.76321C76.222 4.82219 75.942 4.96765 75.7593 5.08166C75.5765 5.19567 75.3277 5.38045 75.1994 5.4866C75.0749 5.59668 74.8649 5.81684 74.7328 5.98196C74.6045 6.14708 74.4217 6.41442 74.3323 6.57168C74.239 6.73287 74.1068 7.03166 74.0329 7.23609C73.959 7.44053 73.8696 7.79436 73.8346 8.02238C73.784 8.32904 73.7723 8.55313 73.788 8.90696C73.8035 9.21754 73.8423 9.50847 73.9046 9.75222C73.959 9.95665 74.0445 10.2319 74.0952 10.3616C74.1457 10.4913 74.274 10.7468 74.3829 10.9278C74.4917 11.1125 74.7172 11.4113 74.9078 11.6157C75.0905 11.8123 75.3783 12.0717 75.5493 12.1898C75.7165 12.3077 75.981 12.461 76.1287 12.5278C76.2765 12.5986 76.5564 12.7048 76.7509 12.7598C77.0386 12.8463 77.2019 12.8698 77.684 12.8856C78.1389 12.9013 78.345 12.8934 78.6172 12.8384C78.8116 12.803 79.0916 12.7283 79.2393 12.6733C79.3871 12.6182 79.636 12.5082 79.7837 12.4256C79.9315 12.343 80.1687 12.1898 80.3086 12.0875C80.4486 11.9853 80.7403 11.7179 81.3585 11.089L82.6883 12.1543C83.4232 12.7401 84.0375 13.2355 84.0609 13.2513C84.0842 13.2709 84.0259 13.381 83.9054 13.5343C83.8004 13.6719 83.5554 13.9431 83.361 14.1358C83.1705 14.3323 82.8633 14.6075 82.6805 14.753C82.4978 14.8946 82.1828 15.1147 81.9806 15.2406C81.7784 15.3624 81.4479 15.5433 81.2496 15.6376C81.0552 15.732 80.6858 15.8775 80.4369 15.9599C80.1842 16.0465 79.7954 16.1487 79.5698 16.1959C79.3443 16.2391 78.9866 16.2981 78.7728 16.3217C78.5394 16.3492 78.0767 16.357 77.6257 16.3452C77.0891 16.3334 76.7431 16.3021 76.4397 16.247C76.2065 16.1998 75.8332 16.1094 75.6115 16.0425C75.3938 15.9796 75.0011 15.8302 74.7406 15.7163C74.4762 15.6022 74.1068 15.4135 73.9123 15.2995C73.718 15.1815 73.4069 14.9692 73.2124 14.8238C73.0181 14.6783 72.7147 14.4228 72.5359 14.2498C72.3532 14.0807 72.0771 13.778 71.9138 13.5853C71.7543 13.3928 71.5211 13.0703 71.3928 12.8777C71.2683 12.6851 71.0506 12.2919 70.9184 12.0128C70.7822 11.7337 70.619 11.3406 70.5567 11.1479C70.4945 10.9553 70.3973 10.5896 70.3429 10.3419C70.2845 10.0943 70.2223 9.70504 70.199 9.47702C70.1796 9.24899 70.1602 8.89123 70.1602 8.67893C70.1602 8.47056 70.1796 8.1246 70.203 7.91623C70.2223 7.70393 70.2885 7.32652 70.3429 7.07883C70.3973 6.83115 70.4945 6.46553 70.5567 6.27289C70.619 6.08025 70.7822 5.69104 70.9184 5.40797C71.0506 5.1249 71.2683 4.73963 71.3928 4.54305C71.5211 4.34648 71.7543 4.03196 71.9138 3.83539C72.0771 3.63882 72.3532 3.34003 72.5359 3.17098C72.7147 2.998 73.0181 2.74245 73.2124 2.59699C73.4069 2.45153 73.7024 2.25102 73.8735 2.14487C74.0445 2.03872 74.3517 1.87753 74.5539 1.78318C74.7561 1.6849 75.1255 1.53943 75.3705 1.45687C75.6155 1.37431 75.9498 1.27995 76.1092 1.24457Z"></path>
<path fill="white" d="M0.521484 16.0426V8.69086V1.33905L11.7781 1.35871L11.7976 4.72009L4.07928 4.73975L4.05984 7.74731H10.4367V11.0497H4.05984V16.0426H0.521484Z"></path>
<path fill="white" d="M85.9778 8.71833C85.9739 4.6886 85.9856 1.37833 86.0051 1.36654C86.0245 1.3508 86.8293 1.33901 89.5628 1.33901L89.5823 7.49959L95.4536 1.33508L97.565 1.33901C98.9298 1.33901 99.6802 1.3508 99.6918 1.37833C99.7035 1.39799 98.7042 2.45555 97.4716 3.7254C96.239 4.99919 94.9598 6.31229 94.0305 7.25584L97.0478 11.6276C98.7042 14.0336 100.061 16.0111 100.061 16.0229C100.061 16.0348 99.097 16.0387 95.7686 16.0229L93.7155 12.9565C92.584 11.2699 91.6431 9.86239 91.6236 9.83094C91.5964 9.78376 91.3671 10.0039 89.5667 11.8557L89.5628 16.0426H85.9856L85.9778 8.71833Z"></path>
<path fill="white" d="M13.5774 8.71837C13.5735 4.68864 13.5851 1.37836 13.6046 1.36657C13.6241 1.35084 16.1787 1.33905 24.939 1.33905V4.72009H17.1624V6.96102H23.3837V10.2634H17.1624V12.6616L24.9196 12.6813L24.939 16.0426H13.5851L13.5774 8.71837Z"></path>
<path fill="white" d="M27.2263 8.71831C27.2225 4.68858 27.2341 1.3783 27.2535 1.36651C27.273 1.35078 28.0739 1.34292 30.788 1.35865L37.4798 10.2241L37.4992 1.33899H40.9599V16.0426H37.5576L30.753 7.17326L30.7336 16.0426H27.2341L27.2263 8.71831Z"></path>
<path fill="white" d="M43.9769 6.92164C43.2382 3.88263 42.6472 1.38616 42.6549 1.36651C42.6665 1.35078 43.4831 1.34292 46.2633 1.35865L47.2976 5.78152C47.8653 8.21508 48.3396 10.228 48.3474 10.2594C48.359 10.287 48.9423 8.48243 49.6461 6.24936C50.3499 4.01238 50.9876 1.99554 51.1859 1.33899L54.2343 1.35865L55.5835 5.64393C56.3301 7.99885 56.9678 10.0314 57.0766 10.3931L59.1763 1.35865L60.9261 1.35078C61.8904 1.34292 62.6875 1.35078 62.6991 1.37044C62.7146 1.38616 61.9254 4.7161 59.1725 16.1408H55.4552L54.071 11.7691C53.305 9.36307 52.6712 7.40914 52.6595 7.42487C52.6439 7.44059 52.0685 9.24906 51.3803 11.4429C50.692 13.6365 50.0777 15.5983 49.9027 16.1606H46.2088L45.7616 14.301C45.5167 13.2827 44.7118 9.96064 43.9769 6.92164Z"></path>
<path fill="white" d="M64.4058 16.0426V8.69086V1.33905L67.9636 1.35871L67.983 16.0426H64.4058Z"></path>
</g>
<defs>
<clipPath id="clip0_634_568083">
<rect transform="translate(0.452148 0.137634)" fill="white" height="16.7247" width="100"></rect>
</clipPath>
</defs>
</svg>
