<svg xmlns="http://www.w3.org/2000/svg" fill="none" viewBox="0 0 108 12" height="12" width="108">
<g clip-path="url(#clip0_1388_2418)">
<path fill="white" d="M14.5091 0.18927L11.7631 6.76955L9.01455 0.18927H7.25135L10.2639 7.38265C10.5138 7.98285 11.0998 8.3705 11.7528 8.3705C12.4058 8.3705 12.9906 7.98285 13.2417 7.3852L16.2724 0.18927H14.5091ZM15.6825 10.2149L20.7055 5.1364L20.0203 3.51998L14.5336 9.0776C14.0751 9.5426 13.9437 10.2278 14.1974 10.828C14.4499 11.423 15.0333 11.8082 15.6838 11.8082L15.6863 11.8107L23.5288 11.7914L22.8436 10.175L15.6838 10.2149H15.6825ZM2.82325 5.13255L3.50846 3.51612L8.99525 9.07375C9.45375 9.53745 9.58645 10.2252 9.3314 10.8241C9.07895 11.4204 8.49295 11.8042 7.8451 11.8042L0.00257596 11.7863L0 11.7888L0.685205 10.1724L7.8451 10.2123L2.82325 5.13255Z" clip-rule="evenodd" fill-rule="evenodd"></path>
<path fill="white" d="M29.7939 11.1654L29.7952 11.1667H31.1437V6.52228H35.4997V5.31803H31.1437V2.29642H35.935V1.09216H29.7939V11.1654Z"></path>
<path fill="white" d="M38.5978 3.88965H37.333V11.1654H38.5978V3.88965Z"></path>
<path fill="white" d="M41.8055 4.85436H41.8068C41.7785 4.92391 41.7514 4.96641 41.6664 4.96641C41.5956 4.96641 41.5685 4.93936 41.5685 4.86981V3.88966H40.3037V11.1655H41.566V7.03618C41.566 5.63873 42.2138 5.09263 43.4361 5.09263H44.4485V3.86133H43.6332C42.6363 3.86133 42.1301 4.15498 41.8055 4.85436Z"></path>
<path fill="white" d="M48.6547 10.287C47.2985 10.287 46.2861 9.5168 46.2011 7.88105H52.1114V7.1804C52.1114 5.15185 50.8749 3.68225 48.6251 3.68225C46.375 3.68225 44.9414 5.15185 44.9414 7.52945C44.9414 9.90705 46.3325 11.3767 48.6521 11.3767C50.9719 11.3767 51.9249 9.965 52.1389 8.85995H50.8199C50.6149 9.6868 50.0109 10.287 48.6547 10.287ZM48.6251 4.7706C49.962 4.7706 50.7889 5.4854 50.8469 6.8288H46.2359C46.4458 5.4558 47.4157 4.7706 48.6251 4.7706Z"></path>
<path fill="white" d="M61.0875 9.80793C61.0565 9.93413 61.018 9.97663 60.9175 9.97663C60.817 9.97663 60.7745 9.93413 60.7475 9.80793L59.341 3.88965H57.162L55.7555 9.80793C55.7245 9.93413 55.686 9.97663 55.5855 9.97663C55.485 9.97663 55.4425 9.93413 55.4155 9.80793L54.009 3.88965H52.7725V4.17043H52.78L54.496 11.1654H56.6675L58.1165 5.06428C58.1435 4.96511 58.1705 4.93806 58.2555 4.93806C58.325 4.93806 58.3675 4.96768 58.3945 5.06428L59.8435 11.1654H62.015L63.7305 4.17043V3.88965H62.494L61.0875 9.80793Z"></path>
<path fill="white" d="M68.1406 3.68097C66.0166 3.68097 64.3311 5.0089 64.3311 7.52815C64.3311 10.0474 66.0156 11.3753 68.1406 11.3753C70.2661 11.3753 71.9521 10.0474 71.9521 7.52815C71.9521 5.0089 70.2646 3.68097 68.1406 3.68097ZM68.1431 10.2561C66.6671 10.2561 65.6126 9.27855 65.6126 7.52815C65.6126 5.7778 66.6671 4.80022 68.1431 4.80022C69.6191 4.80022 70.6741 5.7804 70.6741 7.52815C70.6741 9.27595 69.6191 10.2561 68.1431 10.2561Z"></path>
<path fill="white" d="M74.7901 4.85436C74.7631 4.92391 74.7361 4.96641 74.6511 4.96641C74.5801 4.96641 74.5531 4.93936 74.5531 4.86981V3.88966H73.2881V11.1642H74.5506V7.03618C74.5506 5.63873 75.1986 5.09263 76.4206 5.09263H77.4331V3.86133H76.6176C75.6206 3.86133 75.1146 4.15498 74.7901 4.85436Z"></path>
<path fill="white" d="M79.6727 7.27578V1.09216H78.4082V11.1719H79.6727V8.84838L81.0447 7.67888L83.7727 11.1693H85.1557V10.8885L81.9782 6.87908L85.1557 4.17043V3.88965H83.5302L79.6727 7.27578Z"></path>
<path fill="white" d="M89.5389 7.00135L88.4994 6.8056C87.5029 6.61625 87.0659 6.4076 87.0659 5.80485C87.0659 5.20205 87.5594 4.75513 88.7394 4.75513C89.9189 4.75513 90.5939 5.20465 90.6919 6.19765H91.9799C91.8369 4.42412 90.4599 3.68353 88.7339 3.68353C87.0079 3.68353 85.7964 4.42541 85.7964 5.82285C85.7964 7.22035 86.7879 7.7046 88.2149 7.96995L89.2544 8.1657C90.2669 8.35505 90.7729 8.5727 90.7729 9.20125C90.7729 9.82975 90.2654 10.2986 89.0444 10.2986C87.8234 10.2986 87.0134 9.795 86.9154 8.829H85.6289C85.7484 10.5639 87.1614 11.3753 89.0459 11.3753C90.9299 11.3753 92.0404 10.5716 92.0404 9.1291C92.0404 7.6866 90.8734 7.25255 89.5389 7.00135Z"></path>
<path fill="white" d="M107.5 1.09216H106.082V11.1719H107.5V1.09216Z"></path>
<path fill="white" d="M99.2044 1.09216L95.2734 10.9877V11.1719H96.6774L97.6729 8.54053H102.405L103.401 11.1719H104.847V10.9903L100.888 1.09216H99.2044ZM98.1404 7.32213L99.8304 2.89533H99.8294C99.8574 2.81934 99.9309 2.76911 100.012 2.76911H100.081C100.163 2.76911 100.236 2.81934 100.264 2.89533L101.941 7.32213H98.1404Z"></path>
<path fill="white" d="M38.5978 1.09216H37.333V2.57591H38.5978V1.09216Z"></path>
</g>
<defs>
<clipPath id="clip0_1388_2418">
<rect fill="white" height="12" width="107.5"></rect>
</clipPath>
</defs>
</svg>
