<svg xmlns="http://www.w3.org/2000/svg" fill="none" viewBox="0 0 75 21" height="21" width="75">
<mask height="21" width="75" y="0" x="0" maskUnits="userSpaceOnUse" style="mask-type:luminance" id="mask0_634_568174">
<path fill="white" d="M74.4521 0.381683H0.452148V20.6183H74.4521V0.381683Z"></path>
</mask>
<g mask="url(#mask0_634_568174)">
<path fill="white" d="M40.2989 10.5238L30.3433 0.381653V20.6421L40.2989 10.5238Z"></path>
<path fill="white" d="M0.452148 10.5238L10.4313 20.6421V0.381683L0.452148 10.5238Z"></path>
<path fill="white" d="M20.3868 10.5237L10.4312 20.642H30.3425L20.3868 10.5237L30.3425 0.381653H10.4312L20.3868 10.5237Z" clip-rule="evenodd" fill-rule="evenodd"></path>
<path fill="white" d="M49.0357 11.1187H45.4282V14.7374H43.6245V6.26187H45.4282V9.73781H49.0357V6.26187H50.8395V14.7374H49.0357V11.1187Z"></path>
<path fill="white" d="M55.1965 14.9044C53.3928 14.9044 51.917 14.1664 51.8936 12.1427H53.6973C53.7207 13.0474 54.2361 13.595 55.2199 13.595C55.9461 13.595 56.7894 13.214 56.7894 12.3808C56.7894 11.7142 56.2272 11.5237 55.2902 11.238L54.6811 11.0713C53.3693 10.6904 52.0575 10.1666 52.0575 8.64295C52.0575 6.76213 53.791 6.11932 55.3605 6.11932C56.9768 6.11932 58.3823 6.69071 58.4057 8.57153H56.602C56.5317 7.80968 56.0867 7.35733 55.2433 7.35733C54.564 7.35733 53.9081 7.71445 53.9081 8.47629C53.9081 9.0953 54.4703 9.28576 55.6416 9.66668L56.3443 9.88095C57.7733 10.3333 58.6868 10.8333 58.6868 12.2617C58.6634 14.1664 56.8363 14.9044 55.1965 14.9044Z"></path>
<path fill="white" d="M59.6943 6.28605H62.5991C63.1378 6.26225 63.7 6.28605 64.2388 6.38128C65.2461 6.61936 66.0191 7.28598 66.0191 8.42875C66.0191 9.52391 65.3398 10.0715 64.3559 10.3334C65.4803 10.5476 66.3237 11.119 66.3237 12.3808C66.3237 14.3093 64.4496 14.7378 62.9973 14.7378H59.7178L59.6943 6.28605ZM62.5991 9.80961C63.3955 9.80961 64.2154 9.64295 64.2154 8.66683C64.2154 7.78594 63.4658 7.54787 62.7162 7.54787H61.4512V9.80961H62.5991ZM62.763 13.476C63.6063 13.476 64.4262 13.2855 64.4262 12.238C64.4262 11.1905 63.7235 11 62.8567 11H61.4278V13.476H62.763Z"></path>
<path fill="white" d="M71.0082 14.9044C68.3143 14.9044 67.1196 13.1664 67.1196 10.5714C67.1196 7.97634 68.4549 6.09552 71.1019 6.09552C72.7651 6.09552 74.3814 6.85737 74.4283 8.76199H72.5543C72.4606 7.90491 71.8984 7.47637 71.1019 7.47637C69.4621 7.47637 68.9702 9.26196 68.9702 10.619C68.9702 11.976 69.4621 13.5474 71.0316 13.5474C71.8515 13.5474 72.4606 13.095 72.5777 12.2379H74.4517C74.2643 14.1902 72.7417 14.9044 71.0082 14.9044Z"></path>
</g>
</svg>
