<svg xmlns="http://www.w3.org/2000/svg" fill="none" viewBox="0 0 54 23" height="23" width="54">
<g clip-path="url(#clip0_634_568103)">
<path fill="white" d="M12.2559 22.0757V20.6353H26.9157C26.271 21.2537 25.4276 21.6856 24.5669 21.9301L23.7382 22.076H12.2559V22.0757Z"></path>
<path fill="white" d="M10.8842 20.6353H0.557129V22.0757H10.8842V20.6353Z"></path>
<path fill="white" d="M53.4432 20.6353H46.0049V22.0757H53.4432V20.6353Z"></path>
<path fill="white" d="M53.4432 17.8262V19.2667L46.0049 19.2306V17.8262H53.4432Z"></path>
<path fill="white" d="M37.2428 20.6353H29.9009V22.0757H37.2428V20.6353Z"></path>
<path fill="white" d="M41.6237 22.0757L41.1182 20.6353H42.2255L41.72 22.0757H41.6237Z"></path>
<path fill="white" d="M41.2148 9.37527L41.6601 10.5999L42.1174 9.37527H50.4826V10.8398H46.0412L46.0051 10.8037V10.0956L45.7005 10.841L37.5291 10.8256L37.243 10.0476V10.8398H32.7896V9.37527H41.2148Z"></path>
<path fill="white" d="M28.6489 17.8262C28.5304 18.311 28.4555 18.8881 28.1073 19.2667H12.2559V17.8262H28.6489Z"></path>
<path fill="white" d="M28.6489 5.19784H12.2559V3.75739H28.1073C28.4529 4.13739 28.5319 4.7104 28.6489 5.19784Z"></path>
<path fill="white" d="M26.9157 2.38882H12.2559V0.948364H23.7018C24.8917 1.04859 26.054 1.57834 26.9157 2.38882Z"></path>
<path fill="white" d="M27.8787 9.37527C27.6032 9.97112 27.1032 10.4191 26.6148 10.8398H15.2168V9.37527H27.8787Z"></path>
<path fill="white" d="M27.8787 13.6488H15.2168V12.1843H26.6148C27.1025 12.605 27.6025 13.0539 27.8787 13.6488Z"></path>
<path fill="white" d="M10.8842 17.8262H0.557129V19.2667H10.8842V17.8262Z"></path>
<path fill="white" d="M10.7878 3.75739H0.484863V5.19784H10.7878V3.75739Z"></path>
<path fill="white" d="M10.7878 0.948395H0.484863V2.38885H10.7878V0.948395Z"></path>
<path fill="white" d="M39.674 5.19784H29.8286V3.75739H39.1805L39.674 5.19784Z"></path>
<path fill="white" d="M53.3711 3.75739V5.19784H43.5498L44.0433 3.75739H53.3711Z"></path>
<path fill="white" d="M38.7112 2.38882H29.8286V0.948364H38.1695L38.7112 2.38882Z"></path>
<path fill="white" d="M53.3713 0.948364V2.38882H44.561L45.1027 0.948364H53.3713Z"></path>
<path fill="white" d="M50.4824 6.56625V8.00695H42.5386L43.0441 6.56625H50.4824Z"></path>
<path fill="white" d="M40.1797 6.56625L40.6852 8.00695H32.7896V6.56625H40.1797Z"></path>
<path fill="white" d="M37.2428 17.8262H29.9009V19.2667H37.2428V17.8262Z"></path>
<path fill="white" d="M45.2348 12.1843L44.7305 13.6378L38.631 13.645L38.0718 12.2331L38.0975 12.1843H45.2348Z"></path>
<path fill="white" d="M28.5046 15.0172C28.6298 15.4882 28.7736 15.9646 28.7695 16.4576H24.0273V15.0172H28.5049H28.5046Z"></path>
<path fill="white" d="M28.7698 6.56625C28.7748 7.05947 28.6277 7.53489 28.5049 8.00671H24.0273V6.56625H28.7695H28.7698Z"></path>
<path fill="white" d="M44.2236 15.0172L43.6834 16.4593L39.6173 16.4545L39.0723 15.0172H44.2236Z"></path>
<path fill="white" d="M3.44531 10.8398V9.37527H7.8867L7.92283 9.41133V10.8037L7.8867 10.8398H3.44531Z"></path>
<path fill="white" d="M3.44531 13.6488V12.1843H7.8867L7.92283 12.2204V13.6128L7.8867 13.6488H3.44531Z"></path>
<path fill="white" d="M50.4824 12.1843V13.6488H46.041L46.0049 13.6128V12.2204L46.041 12.1843H50.4824Z"></path>
<path fill="white" d="M37.243 12.1843H32.7896V13.6488H37.243V12.1843Z"></path>
<path fill="white" d="M7.92283 8.00695H3.44531V6.56625H7.8867L7.92283 6.60231V8.00695Z"></path>
<path fill="white" d="M7.92283 15.0172V16.4218L7.8867 16.4578H3.44531V15.0172H7.92283Z"></path>
<path fill="white" d="M50.4824 15.0172V16.4578H46.041L46.0049 16.4218V15.0172H50.4824Z"></path>
<path fill="white" d="M19.6702 6.56625H15.2168V8.00671H19.6702V6.56625Z"></path>
<path fill="white" d="M19.6702 15.0172H15.2168V16.4576H19.6702V15.0172Z"></path>
<path fill="white" d="M37.243 15.0172H32.7896V16.4576H37.243V15.0172Z"></path>
<path fill="white" d="M43.2127 17.8262L42.7166 19.2681L40.6365 19.2552L40.1074 17.8262H43.2127Z"></path>
</g>
<defs>
<clipPath id="clip0_634_568103">
<rect transform="translate(0.452148 0.924316)" fill="white" height="21.1514" width="53"></rect>
</clipPath>
</defs>
</svg>
