<svg viewBox="0 0 1366.84 397.18" height="397.18" width="1366.84" xmlns="http://www.w3.org/2000/svg" id="Layer_2">
  <g id="Layer_1-2">
    <path style="fill: #fff;" d="M1172.54,226.52l-49.55,85.83c-2.75,5.05-9.39,9.44-14.96,9.47h-133c-3.61,0-5.35-1.61-5.35-4.83,0-1.46,.29-2.88,1.31-4.63l49.55-85.83c2.75-5.05,9.39-9.44,14.96-9.47h47.5c3.61,0,5.35,1.61,5.35,4.83,0,1.46-.29,2.88-1.31,4.63l-44.09,76.37c-.87,1.75-1.4,3.26-1.4,4.72,0,3.21,1.81,4.74,5.43,4.74,2.61,0,5.28-.8,8.18-2.7,2.9-1.9,5.19-4.14,6.78-6.76l44.1-76.36c2.75-5.05,9.39-9.44,14.96-9.47h47.5c3.61,0,5.35,1.61,5.35,4.83,0,1.46-.29,2.88-1.31,4.63Zm-172.63,19.26l11.13-19.26c1.02-1.76,1.31-3.17,1.31-4.63,0-3.22-1.74-4.83-5.35-4.83h-133c-5.57,.03-12.21,4.41-14.96,9.47l-49.55,85.83c-1.02,1.76-1.31,3.17-1.31,4.63,0,3.22,1.74,4.83,5.35,4.83h47.5c5.57-.04,12.21-4.42,14.96-9.47l44.09-76.36c1.59-2.62,3.89-4.87,6.78-6.76,2.89-1.9,5.57-2.7,8.18-2.7,3.62,0,5.43,1.53,5.43,4.74,0,1.46-.53,2.97-1.4,4.72l-5.66,9.81c-1.02,1.76-1.31,3.17-1.31,4.63,0,3.22,1.74,4.83,5.35,4.83h47.5c5.57-.03,12.21-4.41,14.96-9.47Zm-635.29-19.27l-49.55,85.83c-2.75,5.05-9.39,9.44-14.96,9.47l-66.49-.03c-5.57,.03-12.21,4.41-14.96,9.47l-35.04,60.7c-2.02,3.51-4.04,5.24-6.07,5.24-1.3,0-2.1-.83-2.89-2.02l-26.01-45.02c-.72-1.46-1.21-3.37-1.21-5.56,0-3.37,.55-6.29,2.14-8.93l63.04-109.14c2.75-5.05,9.39-9.44,14.96-9.47h133c3.61,0,5.35,1.61,5.35,4.83,0,1.46-.29,2.88-1.31,4.63Zm-70.57,4.74c0-3.21-1.81-4.74-5.43-4.74-2.61,0-5.28,.8-8.18,2.7-2.9,1.9-5.19,4.14-6.78,6.76l-38.63,66.9c-.87,1.75-1.4,3.26-1.4,4.72,0,3.21,1.81,4.74,5.43,4.74,2.61,0,5.28-.8,8.18-2.7,2.9-1.9,5.19-4.14,6.78-6.76l38.63-66.9c.87-1.75,1.4-3.26,1.4-4.72Zm-140.76,81.09l22.04-38.17c1.02-1.76,1.31-3.17,1.31-4.63,0-3.22-1.74-4.83-5.35-4.83H104.81c-3.62,0-5.43-1.53-5.43-4.74,0-1.46,.53-2.97,1.4-4.72l11.13-19.27c1.59-2.62,3.89-4.87,6.78-6.76,2.89-1.9,5.57-2.7,8.18-2.7,3.62,0,5.43,1.53,5.43,4.74,0,1.46-.53,2.97-1.4,4.72l-5.66,9.81c-1.02,1.76-1.31,3.17-1.31,4.63,0,3.22,1.74,4.83,5.35,4.83h47.5c5.57-.03,12.21-4.41,14.96-9.47l11.13-19.26c1.02-1.76,1.31-3.17,1.31-4.63,0-3.22-1.74-4.83-5.35-4.83H65.82c-5.57,.03-12.21,4.41-14.96,9.47l-22.04,38.17c-1.02,1.76-1.31,3.17-1.31,4.63,0,3.22,1.74,4.83,5.35,4.83H99.35c3.62,0,5.43,1.53,5.43,4.74,0,1.46-.53,2.97-1.4,4.72l-11.13,19.27c-1.59,2.62-3.89,4.87-6.78,6.76-2.89,1.9-5.57,2.7-8.18,2.7-3.62,0-5.43-1.53-5.43-4.74,0-1.46,.53-2.97,1.4-4.72l5.66-9.81c1.02-1.76,1.31-3.17,1.31-4.63,0-3.22-1.74-4.83-5.35-4.83H27.39c-5.57,.03-12.21,4.41-14.96,9.47l-11.13,19.27c-1.02,1.76-1.31,3.17-1.31,4.63,0,3.22,1.74,4.83,5.35,4.83H138.34c5.57-.03,12.21-4.41,14.96-9.47Zm334.29-19.27l-11.13,19.27c-2.75,5.05-9.39,9.44-14.96,9.47h-133c-3.61,0-5.35-1.61-5.35-4.83,0-1.46,.29-2.88,1.31-4.63l49.55-85.83c2.75-5.05,9.39-9.44,14.96-9.47h133c3.61,0,5.35,1.61,5.35,4.83,0,1.46-.29,2.88-1.31,4.63l-22.05,38.19c-2.75,5.05-9.39,9.44-14.96,9.47l-66.49-.03c-5.57,.03-12.21,4.41-14.96,9.47l-11.13,19.26c-.87,1.75-1.4,3.26-1.4,4.72,0,3.21,1.81,4.74,5.43,4.74,2.61,0,5.28-.8,8.18-2.7,2.9-1.9,5.19-4.14,6.78-6.76l5.67-9.8c2.75-5.05,9.39-9.44,14.96-9.47h47.5c3.61,0,5.35,1.61,5.35,4.83,0,1.46-.29,2.88-1.31,4.63Zm-65.05-33.1c0,3.21,1.81,4.74,5.43,4.74,2.61,0,5.28-.8,8.18-2.7,2.9-1.9,5.19-4.14,6.78-6.76l11.13-19.27c.87-1.75,1.4-3.26,1.4-4.72,0-3.21-1.81-4.74-5.43-4.74-2.61,0-5.28,.8-8.18,2.7-2.9,1.9-5.19,4.14-6.78,6.76l-11.13,19.27c-.87,1.75-1.4,3.26-1.4,4.72Zm227.08,33.1l-11.13,19.27c-2.75,5.05-9.39,9.44-14.96,9.47h-133c-3.61,0-5.35-1.61-5.35-4.83,0-1.46,.29-2.88,1.31-4.63l49.55-85.83c2.75-5.05,9.39-9.44,14.96-9.47h133c3.61,0,5.35,1.61,5.35,4.83,0,1.46-.29,2.88-1.31,4.63l-22.05,38.19c-2.75,5.05-9.39,9.44-14.96,9.47l-66.49-.03c-5.57,.03-12.21,4.41-14.96,9.47l-11.13,19.26c-.87,1.75-1.4,3.26-1.4,4.72,0,3.21,1.81,4.74,5.43,4.74,2.61,0,5.28-.8,8.18-2.7,2.9-1.9,5.19-4.14,6.78-6.76l5.67-9.8c2.75-5.05,9.39-9.44,14.96-9.47h47.5c3.61,0,5.35,1.61,5.35,4.83,0,1.46-.29,2.88-1.31,4.63Zm-65.05-33.1c0,3.21,1.81,4.74,5.43,4.74,2.61,0,5.28-.8,8.18-2.7,2.9-1.9,5.19-4.14,6.78-6.76l11.13-19.27c.87-1.75,1.4-3.26,1.4-4.72,0-3.21-1.81-4.74-5.43-4.74-2.61,0-5.28,.8-8.18,2.7-2.9,1.9-5.19,4.14-6.78,6.76l-11.13,19.27c-.87,1.75-1.4,3.26-1.4,4.72Zm278.47-56.76l-63.04,109.14c-2.75,5.05-9.39,9.44-14.96,9.47h-133c-3.61,0-5.35-1.61-5.35-4.83,0-1.46,.29-2.88,1.31-4.63l49.55-85.83c2.75-5.05,9.39-9.44,14.96-9.47l66.49,.03c5.57-.03,12.21-4.41,14.96-9.47l35.04-60.7c2.02-3.51,4.04-5.24,6.07-5.24,1.3,0,2.1,.83,2.89,2.02l26.01,45.02c.72,1.46,1.21,3.37,1.21,5.56,0,3.37-.55,6.29-2.14,8.93Zm-84.05,28.06c0-3.21-1.81-4.74-5.43-4.74-2.61,0-5.28,.8-8.18,2.7-2.9,1.9-5.19,4.14-6.78,6.76l-38.63,66.9c-.87,1.75-1.4,3.26-1.4,4.72,0,3.21,1.81,4.74,5.43,4.74,2.61,0,5.28-.8,8.18-2.7,2.9-1.9,5.19-4.14,6.78-6.76l38.63-66.9c.87-1.75,1.4-3.26,1.4-4.72Zm551.01-14.2h-133c-5.57,.03-12.21,4.41-14.96,9.47l-49.55,85.83c-1.02,1.76-1.31,3.17-1.31,4.63,0,3.22,1.74,4.83,5.35,4.83h47.5c5.57-.03,12.21-4.41,14.96-9.47l44.1-76.36c1.6-2.62,3.89-4.87,6.78-6.76,2.89-1.9,5.57-2.7,8.18-2.7,3.62,0,5.43,1.53,5.43,4.74,0,1.46-.53,2.97-1.4,4.72l-44.09,76.37c-1.02,1.76-1.31,3.17-1.31,4.63,0,3.22,1.74,4.83,5.35,4.83h47.5c5.57-.03,12.21-4.41,14.96-9.47l49.55-85.83c1.02-1.76,1.31-3.17,1.31-4.63,0-3.22-1.74-4.83-5.35-4.83ZM209.11,141.78h22.42V0h-37.62V21.39h15.2v120.39Zm226.61-21.04h-51.75v-5.47l51.38-48.95v-29.37h-79.18v21.3h51.31l.05,5.54-51.36,49.26v28.71h79.55v-21.01Zm-192.9-28.65c0-13.63,3.87-23.52,11.71-34.53L297.47,.13h27.25l-29.87,38.99c1.09-.14,1.74-.16,4.02-.16h0c27.61,0,50.81,22.94,50.81,53.13s-23.21,51.99-53.33,51.99-53.53-23.07-53.53-51.99Zm22.86-.43c0,17.4,13.19,31.86,30.55,31.86s30.78-14.46,30.78-31.86-13.53-31.85-30.69-31.85-30.65,14.45-30.65,31.85Zm-182.04-2.34c0-33.52,25.13-55.32,52.72-55.32,1.39,0,2.84,.01,4.33,.08,.08,0,.17,.01,.25,.01,8.27,.65,18.59,4.19,24.59,10.79h5.45s.03,.01,.04,.03v-7.95h22.36v104.72h-22.36v-8.49s-.01,0-.01,.01v-.03h-5.48c-6.41,7.04-13.64,9.47-23.36,10.49h-.05c-1.87,.09-3.85,.12-5.99,.12-26.52,0-52.49-21.16-52.49-54.47Zm22.13-.4c0,.28,0,.56,.01,.84,.44,17.45,14.68,31.47,32.19,31.47s32.21-14.47,32.21-32.31-14.41-32.28-32.21-32.28c-16.36,0-29.88,12.24-31.93,28.08,0,.04,0,.07-.01,.09-.07,.55-.11,1.08-.15,1.63-.07,.81-.11,1.65-.11,2.48Zm691.06,80.82H83.64l-10.93,18.93H785.9l10.93-18.93Zm95.03,0l-10.92,18.93h474.96l10.95-18.93h-474.98Z"></path>
  </g>
</svg>