<svg xmlns="http://www.w3.org/2000/svg" fill="none" viewBox="0 0 61 12" height="12" width="61">
<g clip-path="url(#clip0_1388_2455)">
<path fill="white" d="M13.7821 11.9944L6.89107 0.00994873L0 11.9944H13.7821ZM20.7328 11.4489L26.4917 0.554727H24.0007L20.0281 8.46644L16.0554 0.554727H13.5645L19.3234 11.4489H20.7328ZM59.9797 0.554727V11.4489H57.9175V0.554727H59.9797ZM48.5006 7.3827C48.5006 6.53368 48.6778 5.78693 49.0322 5.1425C49.3866 4.49804 49.8808 4.00194 50.5144 3.65415C51.148 3.30635 51.8892 3.13246 52.7378 3.13246C53.4896 3.13246 54.1663 3.29612 54.7678 3.62345C55.3692 3.95079 55.8472 4.43668 56.2016 5.08112C56.556 5.72558 56.7388 6.51321 56.7494 7.44408V7.91975H50.6757C50.7184 8.59487 50.9171 9.1268 51.2715 9.51551C51.6369 9.894 52.1257 10.0832 52.7378 10.0832C53.1243 10.0832 53.479 9.98095 53.801 9.77636C54.1232 9.57177 54.365 9.29559 54.526 8.9478L56.6368 9.10123C56.3788 9.86841 55.8955 10.4822 55.1867 10.9425C54.4776 11.4028 53.6615 11.633 52.7378 11.633C51.8892 11.633 51.148 11.4591 50.5144 11.1113C49.8808 10.7635 49.3866 10.2674 49.0322 9.62292C48.6778 8.97846 48.5006 8.23175 48.5006 7.3827ZM54.6227 6.61552C54.5475 5.9506 54.3382 5.46473 53.9944 5.15783C53.6506 4.84073 53.2319 4.68217 52.7378 4.68217C52.1684 4.68217 51.7067 4.85096 51.3523 5.18853C50.9976 5.52609 50.7777 6.00175 50.6916 6.61552H54.6227ZM45.0209 5.15783C45.3647 5.43404 45.5794 5.81763 45.6655 6.30862L47.7918 6.20121C47.7167 5.57724 47.4967 5.03509 47.1314 4.57476C46.7661 4.11445 46.2938 3.76156 45.7135 3.51604C45.1445 3.2603 44.5162 3.13246 43.8286 3.13246C42.98 3.13246 42.2391 3.30635 41.6052 3.65415C40.9716 4.00194 40.4774 4.49804 40.123 5.1425C39.7686 5.78693 39.5914 6.53368 39.5914 7.3827C39.5914 8.23175 39.7686 8.97846 40.123 9.62292C40.4774 10.2674 40.9716 10.7635 41.6052 11.1113C42.2391 11.4591 42.98 11.633 43.8286 11.633C44.5374 11.633 45.1819 11.5051 45.7619 11.2494C46.3421 10.9834 46.8144 10.61 47.1798 10.1293C47.5451 9.64849 47.765 9.08587 47.8402 8.44144L45.6976 8.34936C45.6224 8.89151 45.4128 9.31092 45.0693 9.60756C44.7255 9.894 44.3118 10.0372 43.8286 10.0372C43.1628 10.0372 42.6472 9.80705 42.2819 9.34672C41.9169 8.88641 41.7343 8.23175 41.7343 7.3827C41.7343 6.53368 41.9169 5.87901 42.2819 5.41868C42.6472 4.95837 43.1628 4.72822 43.8286 4.72822C44.2906 4.72822 44.6878 4.87142 45.0209 5.15783ZM34.5597 3.3162H36.4788L36.5342 4.88139C36.6705 4.43836 36.8598 4.09431 37.1024 3.84924C37.4542 3.4939 37.9448 3.3162 38.5737 3.3162H39.3573V4.99148H38.5577C38.1099 4.99148 37.7422 5.0524 37.4541 5.17423C37.177 5.29608 36.9638 5.48897 36.8146 5.75297C36.6761 6.01694 36.6068 6.35199 36.6068 6.75811V11.4489H34.5597V3.3162ZM25.7079 5.1425C25.3534 5.78693 25.1762 6.53368 25.1762 7.3827C25.1762 8.23175 25.3534 8.97846 25.7079 9.62292C26.0623 10.2674 26.5564 10.7635 27.1901 11.1113C27.8238 11.4591 28.5649 11.633 29.4134 11.633C30.337 11.633 31.1534 11.4028 31.8622 10.9425C32.5713 10.4822 33.0545 9.86841 33.3122 9.10123L31.2018 8.9478C31.0408 9.29559 30.799 9.57177 30.4768 9.77636C30.1545 9.98095 29.8001 10.0832 29.4134 10.0832C28.8012 10.0832 28.3125 9.894 27.9473 9.51551C27.5929 9.1268 27.3942 8.59487 27.3512 7.91975H33.4252V7.44408C33.4142 6.51321 33.2317 5.72558 32.8773 5.08112C32.5229 4.43668 32.045 3.95079 31.4435 3.62345C30.8421 3.29612 30.1654 3.13246 29.4134 3.13246C28.5649 3.13246 27.8238 3.30635 27.1901 3.65415C26.5564 4.00194 26.0623 4.49804 25.7079 5.1425ZM30.6702 5.15783C31.0137 5.46473 31.2233 5.9506 31.2985 6.61552H27.3673C27.4533 6.00175 27.6734 5.52609 28.0279 5.18853C28.3823 4.85096 28.8442 4.68217 29.4134 4.68217C29.9074 4.68217 30.3264 4.84073 30.6702 5.15783Z" clip-rule="evenodd" fill-rule="evenodd"></path>
</g>
<defs>
<clipPath id="clip0_1388_2455">
<rect fill="white" height="12" width="60.3833"></rect>
</clipPath>
</defs>
</svg>
